# Blender 4.2.3 LTS
# www.blender.org
mtllib asteroid9.mtl
o Asteroid
v 0.634840 1.865306 -0.757364
v 1.899009 -0.117299 -0.921142
v 1.562229 1.368541 -0.323472
v -0.799816 0.624306 -1.924218
v 0.830298 -0.558267 -2.034101
v -0.525707 1.865187 -0.780243
v 1.185961 1.090862 -1.108496
v 1.112155 1.954995 0.257775
v 0.401789 1.194008 -1.519541
v -0.093357 2.279172 0.528672
v 2.274656 0.369480 0.521529
vn 0.0130 0.7484 -0.6631
vn 0.5791 0.6407 -0.5042
vn 0.8774 0.3364 -0.3420
vn -0.0811 0.6852 -0.7238
vn 0.7751 0.3790 -0.5056
vn 0.5612 0.7587 -0.3309
vn 0.0059 0.9529 -0.3033
vn 0.6404 0.2662 -0.7204
vn 0.4298 0.6084 -0.6672
vn 0.2159 0.9585 -0.1862
vn 0.4704 0.3526 -0.8089
vn 0.1655 0.3149 -0.9346
vt 0.258329 0.527189
vt 0.503837 0.537135
vt 0.373427 0.336498
vt 0.313345 0.058308
vt 0.251077 0.269943
vt 0.261657 0.337886
vt 0.134058 0.035622
vt 0.121573 0.537135
vt 0.235873 0.527189
vt 0.516134 0.836456
vt 0.409727 0.051176
vt 0.529263 0.168101
vt 0.008804 0.292472
vt 0.485399 0.292472
s 0
usemtl Material.004
f 9/1/1 6/2/1 1/3/1
f 3/4/2 7/5/2 1/3/2
f 11/6/3 2/7/3 3/4/3
f 6/8/4 9/9/4 4/10/4
f 3/4/5 2/7/5 7/5/5
f 1/3/6 8/11/6 3/4/6
f 10/12/7 1/3/7 6/2/7
f 2/7/8 5/13/8 7/5/8
f 7/5/9 9/1/9 1/3/9
f 10/12/10 8/11/10 1/3/10
f 7/5/11 5/13/11 9/1/11
f 4/10/12 9/9/12 5/14/12
o Asteroid2
v -0.526465 -1.079968 2.174413
v -1.348992 -0.745863 1.860573
v -0.816521 0.106789 2.311012
v -0.764794 -2.193559 -0.765540
v -1.559138 -1.342973 0.944540
v -1.996237 0.594468 1.073087
v -0.880110 -1.479055 1.644133
v -1.557218 -1.560025 -0.162677
v -0.695729 -2.095790 0.567507
v -2.127861 -0.168155 -0.120631
v 0.181696 -1.907735 1.415278
v 0.208167 -2.292517 0.445465
vn -0.9060 -0.2281 0.3565
vn -0.4803 -0.5164 0.7090
vn -0.4204 -0.2045 0.8840
vn -0.5214 -0.7759 0.3552
vn -0.2014 -0.9761 0.0820
vn -0.6113 -0.7768 0.1512
vn -0.5796 -0.8100 0.0894
vn -0.9408 -0.2288 0.2499
vn -0.1515 -0.9202 0.3610
vn -0.7080 0.0709 0.7026
vn -0.1556 -0.7367 0.6581
vn -0.2497 -0.8581 0.4488
vn -0.6445 -0.5644 0.5158
vn -0.9220 -0.3802 0.0729
vt 0.973133 0.152880
vt 0.886202 0.302809
vt 0.803969 0.102889
vt 0.988138 0.430330
vt 0.895611 0.555293
vt 0.762551 0.363627
vt 0.842246 0.282156
vt 0.759855 0.023736
vt 0.737334 0.407299
vt 0.881592 0.074850
vt 0.937152 0.319728
vt 0.933760 0.820290
s 0
usemtl Material.004
f 16/15/13 13/16/13 17/17/13
f 18/18/14 12/19/14 13/16/14
f 14/20/15 13/16/15 12/19/15
f 16/15/16 20/21/16 18/18/16
f 15/22/17 23/23/17 20/21/17
f 20/21/18 16/15/18 19/24/18
f 19/24/19 15/22/19 20/21/19
f 21/25/20 16/15/20 17/17/20
f 20/21/21 23/23/21 22/26/21
f 14/20/22 17/17/22 13/16/22
f 22/26/23 12/19/23 18/18/23
f 18/18/24 20/21/24 22/26/24
f 13/16/25 16/15/25 18/18/25
f 16/15/26 21/25/26 19/24/26
o Asteroid3
v -1.438184 -0.064263 -1.762002
v -0.549371 -0.582264 -2.231654
v -0.799816 0.624306 -1.924218
v 0.830298 -0.558267 -2.034101
v -0.764794 -2.193559 -0.765540
v 0.181526 -2.260736 -0.996257
v -1.082657 -1.505200 -1.736336
v -1.557218 -1.560025 -0.162677
v -2.127861 -0.168155 -0.120631
v -0.257401 -1.868338 -1.720811
v -1.660655 -0.741890 -1.269395
v -0.096254 -1.266695 -2.139803
v 0.208167 -2.292517 0.445465
vn -0.2130 -0.5193 -0.8276
vn 0.1423 -0.0385 -0.9891
vn -0.9222 0.0221 -0.3861
vn -0.3922 0.1498 -0.9076
vn -0.7103 -0.6627 -0.2373
vn -0.2930 -0.3151 -0.9027
vn -0.0758 -0.9969 -0.0206
vn -0.1602 -0.9054 -0.3933
vn -0.5270 -0.1449 -0.8374
vn -0.8399 -0.4710 -0.2697
vn -0.7612 -0.1988 -0.6173
vn 0.1319 0.2704 -0.9537
vn -0.3497 -0.8145 -0.4630
vn -0.9109 -0.3678 -0.1868
vt 0.617475 0.322538
vt 0.668150 0.183058
vt 0.739027 0.326057
vt 0.628235 0.524816
vt 0.485399 0.292472
vt 0.816827 0.675737
vt 0.853161 0.456297
vt 0.937152 0.319728
vt 0.516134 0.836456
vt 0.759855 0.023736
vt 0.881592 0.074850
vt 0.666557 0.054058
vt 0.737334 0.407299
s 0
usemtl Material.004
f 35/27/27 33/28/27 30/29/27
f 25/30/28 27/31/28 35/27/28
f 24/32/29 34/33/29 32/34/29
f 26/35/30 25/30/30 24/32/30
f 28/36/31 31/37/31 30/29/31
f 25/30/32 35/27/32 30/29/32
f 28/36/33 29/38/33 36/39/33
f 33/28/34 29/38/34 28/36/34
f 25/30/35 30/29/35 24/32/35
f 34/33/36 30/29/36 31/37/36
f 24/32/37 30/29/37 34/33/37
f 26/35/38 27/31/38 25/30/38
f 28/36/39 30/29/39 33/28/39
f 34/33/40 31/37/40 32/34/40
o Asteroid4
v -1.483820 1.381024 1.273230
v 0.409365 0.364026 2.438284
v -0.331851 1.901300 1.454740
v -0.816521 0.106789 2.311012
v -1.883346 1.210405 0.506088
v 0.607175 2.028095 1.255031
v 0.364007 -0.347625 2.497216
v -0.093357 2.279172 0.528672
v -1.996237 0.594468 1.073087
v -1.137121 1.939131 0.288577
v 0.531328 1.510943 1.801116
vn 0.0494 0.7218 0.6904
vn -0.3543 0.8942 0.2736
vn -0.6595 0.7295 0.1812
vn -0.3434 0.4784 0.8082
vn -0.4313 0.8416 0.3251
vn -0.1872 0.4638 0.8660
vn -0.8272 0.4550 0.3296
vn -0.6528 0.2426 0.7177
vn -0.1234 0.4919 0.8619
vn -0.1214 0.0896 0.9885
vn -0.0474 0.9291 0.3669
vt 0.593500 0.033235
vt 0.540738 0.248482
vt 0.504578 0.086150
vt 0.631431 0.319558
vt 0.529263 0.168101
vt 0.752259 0.280783
vt 0.708980 0.084079
vt 0.762551 0.363627
vt 0.624412 0.539253
vt 0.803969 0.102889
vt 0.701337 0.681010
s 0
usemtl Material.004
f 39/40/41 47/41/41 42/42/41
f 46/43/42 39/40/42 44/44/42
f 46/43/43 41/45/43 37/46/43
f 39/40/44 37/46/44 40/47/44
f 46/43/45 37/46/45 39/40/45
f 38/48/46 39/40/46 40/47/46
f 41/45/47 45/49/47 37/46/47
f 37/46/48 45/49/48 40/47/48
f 47/41/49 39/40/49 38/48/49
f 38/48/50 40/47/50 43/50/50
f 44/44/51 39/40/51 42/42/51
o Asteroid5
v -1.438184 -0.064263 -1.762002
v -0.799816 0.624306 -1.924218
v -1.883346 1.210405 0.506088
v -0.525707 1.865187 -0.780243
v -1.619728 0.744571 -1.228600
v -0.093357 2.279172 0.528672
v -1.996237 0.594468 1.073087
v -1.137121 1.939131 0.288577
v -1.145972 1.540463 -0.829775
v -2.127861 -0.168155 -0.120631
vn -0.2581 0.9424 -0.2128
vn -0.9843 0.1765 -0.0042
vn -0.4635 0.6018 -0.6504
vn -0.9405 0.2640 -0.2138
vn -0.3034 0.6812 -0.6662
vn -0.4233 0.8545 -0.3012
vn -0.9220 0.0466 -0.3844
vn -0.5731 0.3576 -0.7373
vn -0.7134 0.6618 -0.2303
vn -0.7599 0.5895 -0.2738
vt 0.529263 0.168101
vt 0.503837 0.537135
vt 0.631431 0.319558
vt 0.803969 0.102889
vt 0.752259 0.280783
vt 0.937152 0.319728
vt 0.516134 0.836456
vt 0.874477 0.728617
vt 0.621801 0.629604
vt 0.121573 0.537135
vt 0.003608 0.629604
vt 0.816827 0.675737
s 0
usemtl Material.004
f 53/51/52 51/52/52 55/53/52
f 54/54/53 50/55/53 57/56/53
f 49/57/54 52/58/54 56/59/54
f 50/55/55 52/58/55 57/56/55
f 51/60/56 49/57/56 56/61/56
f 55/53/57 51/52/57 56/59/57
f 57/56/58 52/58/58 48/62/58
f 49/57/59 48/62/59 52/58/59
f 56/59/60 50/55/60 55/53/60
f 56/59/61 52/58/61 50/55/61
o Asteroid6
v 2.154402 -1.263969 0.722736
v -0.526465 -1.079968 2.174413
v 2.164917 -1.216972 -0.024147
v 1.596801 -1.862781 0.529577
v -0.816521 0.106789 2.311012
v 0.364007 -0.347625 2.497216
v 2.023435 -0.994010 1.321041
v 2.274656 0.369480 0.521529
v 1.158334 -1.226836 1.943483
v 1.782771 -1.502294 1.218240
v 0.181696 -1.907735 1.415278
v 0.208167 -2.292517 0.445465
v 1.617540 -0.014194 1.926404
vn 0.4433 -0.1554 0.8828
vn 0.9973 -0.0723 0.0095
vn 0.8029 -0.4575 0.3822
vn 0.2554 -0.8963 0.3626
vn 0.7366 -0.6756 -0.0321
vn -0.2147 -0.1633 0.9629
vn 0.6080 -0.2195 0.7630
vn 0.0779 -0.4799 0.8738
vn 0.6016 -0.4220 0.6782
vn 0.2687 -0.8007 0.5354
vn 0.9717 -0.0430 0.2321
vn 0.0466 -0.6532 0.7558
vn 0.6901 -0.7008 0.1805
vn 0.8914 0.0955 0.4430
vn 0.2708 -0.8810 0.3880
vt 0.407595 0.674675
vt 0.701337 0.681010
vt 0.579200 0.985309
vt 0.261657 0.337886
vt 0.078454 0.579527
vt 0.061524 0.390850
vt 0.151120 0.713921
vt 0.026333 0.731330
vt 0.542066 0.554533
vt 0.933760 0.820290
vt 0.737334 0.407299
vt 0.415749 0.579527
vt 0.432679 0.390850
vt 0.762551 0.363627
vt 0.895611 0.555293
vt 0.343083 0.713921
vt 0.086607 0.674675
vt 0.467870 0.731330
s 0
usemtl Material.004
f 70/63/62 63/64/62 66/65/62
f 65/66/63 58/67/63 60/68/63
f 64/69/64 67/70/64 58/67/64
f 61/71/65 68/72/65 69/73/65
f 58/74/66 61/71/66 60/75/66
f 63/64/67 62/76/67 59/77/67
f 64/78/68 70/79/68 66/65/68
f 59/77/69 66/65/69 63/64/69
f 64/78/70 66/65/70 67/80/70
f 68/72/71 67/80/71 66/65/71
f 58/67/72 65/66/72 64/69/72
f 68/72/73 66/65/73 59/77/73
f 58/74/74 67/80/74 61/71/74
f 70/63/75 64/69/75 65/66/75
f 61/71/76 67/80/76 68/72/76
o Asteroid7
v 2.164917 -1.216972 -0.024147
v 1.633324 -0.761889 -1.338088
v 1.899009 -0.117299 -0.921142
v 0.830298 -0.558267 -2.034101
v 1.032735 -1.673904 -1.583900
v 1.596801 -1.862781 0.529577
v 0.181526 -2.260736 -0.996257
v 2.274656 0.369480 0.521529
v -0.257401 -1.868338 -1.720811
v -0.096254 -1.266695 -2.139803
v 0.208167 -2.292517 0.445465
vn 0.6224 -0.7472 -0.2329
vn 0.1729 -0.5936 -0.7859
vn 0.2970 -0.9545 -0.0265
vn 0.7937 -0.3989 -0.4593
vn 0.9656 0.0223 -0.2589
vn 0.6130 -0.1975 -0.7650
vn 0.1812 -0.8146 -0.5510
vn 0.4589 -0.8657 -0.1998
vn 0.9072 -0.1115 -0.4057
vn 0.6701 0.1883 -0.7180
vn 0.3318 -0.3006 -0.8942
vt 0.542066 0.554533
vt 0.555191 0.031806
vt 0.432679 0.390850
vt 0.668150 0.183058
vt 0.617475 0.322538
vt 0.737334 0.407299
vt 0.666557 0.054058
vt 0.445294 0.017365
vt 0.134058 0.035622
vt 0.261657 0.337886
vt 0.061524 0.390850
vt 0.485399 0.292472
vt 0.048908 0.017365
vt 0.008804 0.292472
s 0
usemtl Material.004
f 76/81/77 75/82/77 71/83/77
f 79/84/78 80/85/78 75/82/78
f 81/86/79 77/87/79 76/81/79
f 71/83/80 75/82/80 72/88/80
f 73/89/81 78/90/81 71/91/81
f 74/92/82 72/88/82 75/82/82
f 77/87/83 79/84/83 75/82/83
f 76/81/84 77/87/84 75/82/84
f 71/91/85 72/93/85 73/89/85
f 74/94/86 73/89/86 72/93/86
f 75/82/87 80/85/87 74/92/87
o Asteroid8
v 0.409365 0.364026 2.438284
v 1.688916 1.351346 0.841953
v 1.562229 1.368541 -0.323472
v 0.607175 2.028095 1.255031
v 0.364007 -0.347625 2.497216
v 1.112155 1.954995 0.257775
v -0.093357 2.279172 0.528672
v 2.274656 0.369480 0.521529
v 0.531328 1.510943 1.801116
v 1.617540 -0.014194 1.926404
vn 0.8435 0.5306 -0.0839
vn 0.4029 0.0500 0.9139
vn 0.8161 0.3326 0.4726
vn 0.2733 0.9595 0.0681
vn 0.4603 0.3932 0.7959
vn 0.5785 0.7809 0.2357
vn 0.7552 0.6514 -0.0725
vn 0.5983 0.4789 0.6424
vn 0.5757 0.5522 0.6030
vt 0.381806 0.211899
vt 0.261657 0.337886
vt 0.313345 0.058308
vt 0.624412 0.539253
vt 0.701337 0.681010
vt 0.407595 0.674675
vt 0.504578 0.086150
vt 0.409727 0.051176
vt 0.529263 0.168101
vt 0.540738 0.248482
s 0
usemtl Material.004
f 83/95/88 89/96/88 84/97/88
f 82/98/89 86/99/89 91/100/89
f 89/96/90 83/95/90 91/100/90
f 85/101/91 87/102/91 88/103/91
f 90/104/92 82/98/92 91/100/92
f 85/101/93 83/95/93 87/102/93
f 84/97/94 87/102/94 83/95/94
f 83/95/95 90/104/95 91/100/95
f 83/95/96 85/101/96 90/104/96
