solid 
facet normal 0.0129962135 0.7483914 -0.6631299
 outer loop
  vertex 0.4017891 1.194008 -1.519541
  vertex -0.5257069 1.865187 -0.780243
  vertex 0.63484013 1.865306 -0.757364
 endloop
endfacet
facet normal 0.5790755 0.6406838 -0.50417835
 outer loop
  vertex 1.5622292 1.3685409 -0.323472
  vertex 1.1859611 1.0908619 -1.108496
  vertex 0.63484013 1.865306 -0.757364
 endloop
endfacet
facet normal 0.87741625 0.33643514 -0.34198257
 outer loop
  vertex 2.274656 0.36947984 0.521529
  vertex 1.899009 -0.11729914 -0.921142
  vertex 1.5622292 1.3685409 -0.323472
 endloop
endfacet
facet normal -0.0811009 0.6852075 -0.7238186
 outer loop
  vertex -0.5257069 1.865187 -0.780243
  vertex 0.4017891 1.194008 -1.519541
  vertex -0.79981595 0.6243061 -1.924218
 endloop
endfacet
facet normal 0.7750673 0.37903854 -0.5055694
 outer loop
  vertex 1.5622292 1.3685409 -0.323472
  vertex 1.899009 -0.11729914 -0.921142
  vertex 1.1859611 1.0908619 -1.108496
 endloop
endfacet
facet normal 0.561199 0.7586563 -0.33090222
 outer loop
  vertex 0.63484013 1.865306 -0.757364
  vertex 1.1121551 1.9549949 0.257775
  vertex 1.5622292 1.3685409 -0.323472
 endloop
endfacet
facet normal 0.005881923 0.95287126 -0.30331787
 outer loop
  vertex -0.093356825 2.279172 0.528672
  vertex 0.63484013 1.865306 -0.757364
  vertex -0.5257069 1.865187 -0.780243
 endloop
endfacet
facet normal 0.64039636 0.26623863 -0.7204231
 outer loop
  vertex 1.899009 -0.11729914 -0.921142
  vertex 0.83029795 -0.55826706 -2.034101
  vertex 1.1859611 1.0908619 -1.108496
 endloop
endfacet
facet normal 0.42976812 0.6083597 -0.66723156
 outer loop
  vertex 1.1859611 1.0908619 -1.108496
  vertex 0.4017891 1.194008 -1.519541
  vertex 0.63484013 1.865306 -0.757364
 endloop
endfacet
facet normal 0.2159082 0.9584946 -0.18620361
 outer loop
  vertex -0.093356825 2.279172 0.528672
  vertex 1.1121551 1.9549949 0.257775
  vertex 0.63484013 1.865306 -0.757364
 endloop
endfacet
facet normal 0.47040978 0.35258585 -0.8089486
 outer loop
  vertex 1.1859611 1.0908619 -1.108496
  vertex 0.83029795 -0.55826706 -2.034101
  vertex 0.4017891 1.194008 -1.519541
 endloop
endfacet
facet normal 0.16545013 0.31490505 -0.9345915
 outer loop
  vertex -0.79981595 0.6243061 -1.924218
  vertex 0.4017891 1.194008 -1.519541
  vertex 0.83029795 -0.55826706 -2.034101
 endloop
endfacet
facet normal -0.90602916 -0.22805998 0.35651046
 outer loop
  vertex -1.5591381 -1.3429729 0.94454
  vertex -1.348992 -0.7458629 1.860573
  vertex -1.996237 0.5944682 1.073087
 endloop
endfacet
facet normal -0.4802802 -0.51643074 0.70896417
 outer loop
  vertex -0.88011014 -1.4790549 1.644133
  vertex -0.52646506 -1.079968 2.174413
  vertex -1.348992 -0.7458629 1.860573
 endloop
endfacet
facet normal -0.42036372 -0.20449355 0.8840117
 outer loop
  vertex -0.816521 0.10678906 2.311012
  vertex -1.348992 -0.7458629 1.860573
  vertex -0.52646506 -1.079968 2.174413
 endloop
endfacet
facet normal -0.52140963 -0.7758819 0.35516095
 outer loop
  vertex -1.5591381 -1.3429729 0.94454
  vertex -0.6957292 -2.09579 0.567507
  vertex -0.88011014 -1.4790549 1.644133
 endloop
endfacet
facet normal -0.20136248 -0.9760767 0.082020484
 outer loop
  vertex -0.7647942 -2.193559 -0.76554
  vertex 0.20816682 -2.292517 0.445465
  vertex -0.6957292 -2.09579 0.567507
 endloop
endfacet
facet normal -0.61128783 -0.77682596 0.15122414
 outer loop
  vertex -0.6957292 -2.09579 0.567507
  vertex -1.5591381 -1.3429729 0.94454
  vertex -1.5572181 -1.5600249 -0.162677
 endloop
endfacet
facet normal -0.5795544 -0.8100112 0.08943489
 outer loop
  vertex -1.5572181 -1.5600249 -0.162677
  vertex -0.7647942 -2.193559 -0.76554
  vertex -0.6957292 -2.09579 0.567507
 endloop
endfacet
facet normal -0.9408311 -0.22884052 0.24993756
 outer loop
  vertex -2.127861 -0.16815484 -0.120631
  vertex -1.5591381 -1.3429729 0.94454
  vertex -1.996237 0.5944682 1.073087
 endloop
endfacet
facet normal -0.15153739 -0.92018837 0.36095673
 outer loop
  vertex -0.6957292 -2.09579 0.567507
  vertex 0.20816682 -2.292517 0.445465
  vertex 0.18169585 -1.907735 1.415278
 endloop
endfacet
facet normal -0.7079927 0.07093822 0.7026479
 outer loop
  vertex -0.816521 0.10678906 2.311012
  vertex -1.996237 0.5944682 1.073087
  vertex -1.348992 -0.7458629 1.860573
 endloop
endfacet
facet normal -0.15555446 -0.7366505 0.6581404
 outer loop
  vertex 0.18169585 -1.907735 1.415278
  vertex -0.52646506 -1.079968 2.174413
  vertex -0.88011014 -1.4790549 1.644133
 endloop
endfacet
facet normal -0.24969627 -0.85805607 0.4487668
 outer loop
  vertex -0.88011014 -1.4790549 1.644133
  vertex -0.6957292 -2.09579 0.567507
  vertex 0.18169585 -1.907735 1.415278
 endloop
endfacet
facet normal -0.644512 -0.56442857 0.51577574
 outer loop
  vertex -1.348992 -0.7458629 1.860573
  vertex -1.5591381 -1.3429729 0.94454
  vertex -0.88011014 -1.4790549 1.644133
 endloop
endfacet
facet normal -0.9220179 -0.38021487 0.072936125
 outer loop
  vertex -1.5591381 -1.3429729 0.94454
  vertex -2.127861 -0.16815484 -0.120631
  vertex -1.5572181 -1.5600249 -0.162677
 endloop
endfacet
facet normal -0.21295023 -0.51932645 -0.82761836
 outer loop
  vertex -0.096254095 -1.266695 -2.139803
  vertex -0.25740114 -1.868338 -1.720811
  vertex -1.0826571 -1.5051999 -1.736336
 endloop
endfacet
facet normal 0.14229436 -0.038530506 -0.9890742
 outer loop
  vertex -0.54937106 -0.58226395 -2.231654
  vertex 0.83029795 -0.55826706 -2.034101
  vertex -0.096254095 -1.266695 -2.139803
 endloop
endfacet
facet normal -0.92219526 0.022091245 -0.38609293
 outer loop
  vertex -1.438184 -0.06426289 -1.762002
  vertex -1.660655 -0.7418899 -1.269395
  vertex -2.127861 -0.16815484 -0.120631
 endloop
endfacet
facet normal -0.39224273 0.14983499 -0.90757656
 outer loop
  vertex -0.79981595 0.6243061 -1.924218
  vertex -0.54937106 -0.58226395 -2.231654
  vertex -1.438184 -0.06426289 -1.762002
 endloop
endfacet
facet normal -0.710326 -0.6626669 -0.23729645
 outer loop
  vertex -0.7647942 -2.193559 -0.76554
  vertex -1.5572181 -1.5600249 -0.162677
  vertex -1.0826571 -1.5051999 -1.736336
 endloop
endfacet
facet normal -0.29302454 -0.31513223 -0.90267843
 outer loop
  vertex -0.54937106 -0.58226395 -2.231654
  vertex -0.096254095 -1.266695 -2.139803
  vertex -1.0826571 -1.5051999 -1.736336
 endloop
endfacet
facet normal -0.075784795 -0.9969119 -0.020575278
 outer loop
  vertex -0.7647942 -2.193559 -0.76554
  vertex 0.18152584 -2.260736 -0.996257
  vertex 0.20816682 -2.292517 0.445465
 endloop
endfacet
facet normal -0.16015604 -0.90535605 -0.39329448
 outer loop
  vertex -0.25740114 -1.868338 -1.720811
  vertex 0.18152584 -2.260736 -0.996257
  vertex -0.7647942 -2.193559 -0.76554
 endloop
endfacet
facet normal -0.5269723 -0.14493789 -0.83743256
 outer loop
  vertex -0.54937106 -0.58226395 -2.231654
  vertex -1.0826571 -1.5051999 -1.736336
  vertex -1.438184 -0.06426289 -1.762002
 endloop
endfacet
facet normal -0.8398914 -0.47100827 -0.26969165
 outer loop
  vertex -1.660655 -0.7418899 -1.269395
  vertex -1.0826571 -1.5051999 -1.736336
  vertex -1.5572181 -1.5600249 -0.162677
 endloop
endfacet
facet normal -0.76121926 -0.1988128 -0.6172672
 outer loop
  vertex -1.438184 -0.06426289 -1.762002
  vertex -1.0826571 -1.5051999 -1.736336
  vertex -1.660655 -0.7418899 -1.269395
 endloop
endfacet
facet normal 0.13185427 0.27036908 -0.95368505
 outer loop
  vertex -0.79981595 0.6243061 -1.924218
  vertex 0.83029795 -0.55826706 -2.034101
  vertex -0.54937106 -0.58226395 -2.231654
 endloop
endfacet
facet normal -0.34967706 -0.8144598 -0.46301314
 outer loop
  vertex -0.7647942 -2.193559 -0.76554
  vertex -1.0826571 -1.5051999 -1.736336
  vertex -0.25740114 -1.868338 -1.720811
 endloop
endfacet
facet normal -0.91094273 -0.3678288 -0.1867761
 outer loop
  vertex -1.660655 -0.7418899 -1.269395
  vertex -1.5572181 -1.5600249 -0.162677
  vertex -2.127861 -0.16815484 -0.120631
 endloop
endfacet
facet normal 0.04936915 0.7217621 0.6903782
 outer loop
  vertex -0.33185086 1.9013 1.45474
  vertex 0.53132814 1.510943 1.801116
  vertex 0.6071752 2.028095 1.255031
 endloop
endfacet
facet normal -0.35426453 0.8942138 0.27363902
 outer loop
  vertex -1.1371208 1.9391311 0.288577
  vertex -0.33185086 1.9013 1.45474
  vertex -0.093356825 2.279172 0.528672
 endloop
endfacet
facet normal -0.65954727 0.7294839 0.18124735
 outer loop
  vertex -1.1371208 1.9391311 0.288577
  vertex -1.8833458 1.2104051 0.506088
  vertex -1.4838198 1.3810241 1.27323
 endloop
endfacet
facet normal -0.3434095 0.4783973 0.8082115
 outer loop
  vertex -0.33185086 1.9013 1.45474
  vertex -1.4838198 1.3810241 1.27323
  vertex -0.816521 0.10678906 2.311012
 endloop
endfacet
facet normal -0.4313197 0.8415742 0.32514027
 outer loop
  vertex -1.1371208 1.9391311 0.288577
  vertex -1.4838198 1.3810241 1.27323
  vertex -0.33185086 1.9013 1.45474
 endloop
endfacet
facet normal -0.18721844 0.46376392 0.8659517
 outer loop
  vertex 0.40936503 0.36402598 2.438284
  vertex -0.33185086 1.9013 1.45474
  vertex -0.816521 0.10678906 2.311012
 endloop
endfacet
facet normal -0.827222 0.4550388 0.329611
 outer loop
  vertex -1.8833458 1.2104051 0.506088
  vertex -1.996237 0.5944682 1.073087
  vertex -1.4838198 1.3810241 1.27323
 endloop
endfacet
facet normal -0.6527601 0.24264245 0.7176551
 outer loop
  vertex -1.4838198 1.3810241 1.27323
  vertex -1.996237 0.5944682 1.073087
  vertex -0.816521 0.10678906 2.311012
 endloop
endfacet
facet normal -0.12338141 0.49192137 0.8618529
 outer loop
  vertex 0.53132814 1.510943 1.801116
  vertex -0.33185086 1.9013 1.45474
  vertex 0.40936503 0.36402598 2.438284
 endloop
endfacet
facet normal -0.121433094 0.08960165 0.9885472
 outer loop
  vertex 0.40936503 0.36402598 2.438284
  vertex -0.816521 0.10678906 2.311012
  vertex 0.36400697 -0.34762502 2.497216
 endloop
endfacet
facet normal -0.047422465 0.9290589 0.3668795
 outer loop
  vertex -0.093356825 2.279172 0.528672
  vertex -0.33185086 1.9013 1.45474
  vertex 0.6071752 2.028095 1.255031
 endloop
endfacet
facet normal -0.25806218 0.9423965 -0.2128211
 outer loop
  vertex -0.093356825 2.279172 0.528672
  vertex -0.5257069 1.865187 -0.780243
  vertex -1.1371208 1.9391311 0.288577
 endloop
endfacet
facet normal -0.9842901 0.17650785 -0.0042327885
 outer loop
  vertex -1.996237 0.5944682 1.073087
  vertex -1.8833458 1.2104051 0.506088
  vertex -2.127861 -0.16815484 -0.120631
 endloop
endfacet
facet normal -0.46350756 0.601809 -0.6503741
 outer loop
  vertex -0.79981595 0.6243061 -1.924218
  vertex -1.619728 0.7445711 -1.2286
  vertex -1.1459719 1.5404631 -0.829775
 endloop
endfacet
facet normal -0.9405128 0.26403037 -0.21383113
 outer loop
  vertex -1.8833458 1.2104051 0.506088
  vertex -1.619728 0.7445711 -1.2286
  vertex -2.127861 -0.16815484 -0.120631
 endloop
endfacet
facet normal -0.30343643 0.68122625 -0.6662261
 outer loop
  vertex -0.5257069 1.865187 -0.780243
  vertex -0.79981595 0.6243061 -1.924218
  vertex -1.1459719 1.5404631 -0.829775
 endloop
endfacet
facet normal -0.42327175 0.85445464 -0.30124444
 outer loop
  vertex -1.1371208 1.9391311 0.288577
  vertex -0.5257069 1.865187 -0.780243
  vertex -1.1459719 1.5404631 -0.829775
 endloop
endfacet
facet normal -0.9219702 0.046594124 -0.38444746
 outer loop
  vertex -2.127861 -0.16815484 -0.120631
  vertex -1.619728 0.7445711 -1.2286
  vertex -1.438184 -0.06426289 -1.762002
 endloop
endfacet
facet normal -0.5731037 0.35761645 -0.73733485
 outer loop
  vertex -0.79981595 0.6243061 -1.924218
  vertex -1.438184 -0.06426289 -1.762002
  vertex -1.619728 0.7445711 -1.2286
 endloop
endfacet
facet normal -0.7134204 0.6618183 -0.2302775
 outer loop
  vertex -1.1459719 1.5404631 -0.829775
  vertex -1.8833458 1.2104051 0.506088
  vertex -1.1371208 1.9391311 0.288577
 endloop
endfacet
facet normal -0.75991595 0.58954346 -0.2737996
 outer loop
  vertex -1.1459719 1.5404631 -0.829775
  vertex -1.619728 0.7445711 -1.2286
  vertex -1.8833458 1.2104051 0.506088
 endloop
endfacet
facet normal 0.4433313 -0.1554486 0.88277584
 outer loop
  vertex 1.61754 -0.014194122 1.926404
  vertex 0.36400697 -0.34762502 2.497216
  vertex 1.1583339 -1.2268361 1.943483
 endloop
endfacet
facet normal 0.99734104 -0.07225444 0.0094944965
 outer loop
  vertex 2.274656 0.36947984 0.521529
  vertex 2.154402 -1.2639691 0.722736
  vertex 2.164917 -1.2169721 -0.024147
 endloop
endfacet
facet normal 0.80291814 -0.45746228 0.38216582
 outer loop
  vertex 2.023435 -0.99401015 1.321041
  vertex 1.7827709 -1.5022941 1.21824
  vertex 2.154402 -1.2639691 0.722736
 endloop
endfacet
facet normal 0.25540492 -0.896274 0.36257595
 outer loop
  vertex 1.5968009 -1.8627812 0.529577
  vertex 0.18169585 -1.907735 1.415278
  vertex 0.20816682 -2.292517 0.445465
 endloop
endfacet
facet normal 0.7366125 -0.67555106 -0.03213807
 outer loop
  vertex 2.154402 -1.2639691 0.722736
  vertex 1.5968009 -1.8627812 0.529577
  vertex 2.164917 -1.2169721 -0.024147
 endloop
endfacet
facet normal -0.21474658 -0.16332082 0.9629175
 outer loop
  vertex 0.36400697 -0.34762502 2.497216
  vertex -0.816521 0.10678906 2.311012
  vertex -0.52646506 -1.079968 2.174413
 endloop
endfacet
facet normal 0.60803074 -0.21950479 0.7629654
 outer loop
  vertex 2.023435 -0.99401015 1.321041
  vertex 1.61754 -0.014194122 1.926404
  vertex 1.1583339 -1.2268361 1.943483
 endloop
endfacet
facet normal 0.077936664 -0.4799351 0.8738353
 outer loop
  vertex -0.52646506 -1.079968 2.174413
  vertex 1.1583339 -1.2268361 1.943483
  vertex 0.36400697 -0.34762502 2.497216
 endloop
endfacet
facet normal 0.60157436 -0.4220113 0.67824394
 outer loop
  vertex 2.023435 -0.99401015 1.321041
  vertex 1.1583339 -1.2268361 1.943483
  vertex 1.7827709 -1.5022941 1.21824
 endloop
endfacet
facet normal 0.26865733 -0.8007072 0.53543544
 outer loop
  vertex 0.18169585 -1.907735 1.415278
  vertex 1.7827709 -1.5022941 1.21824
  vertex 1.1583339 -1.2268361 1.943483
 endloop
endfacet
facet normal 0.9717452 -0.042950775 0.23209134
 outer loop
  vertex 2.154402 -1.2639691 0.722736
  vertex 2.274656 0.36947984 0.521529
  vertex 2.023435 -0.99401015 1.321041
 endloop
endfacet
facet normal 0.046649326 -0.65318745 0.7557579
 outer loop
  vertex 0.18169585 -1.907735 1.415278
  vertex 1.1583339 -1.2268361 1.943483
  vertex -0.52646506 -1.079968 2.174413
 endloop
endfacet
facet normal 0.690107 -0.7008368 0.1804997
 outer loop
  vertex 2.154402 -1.2639691 0.722736
  vertex 1.7827709 -1.5022941 1.21824
  vertex 1.5968009 -1.8627812 0.529577
 endloop
endfacet
facet normal 0.891398 0.09554501 0.44303587
 outer loop
  vertex 1.61754 -0.014194122 1.926404
  vertex 2.023435 -0.99401015 1.321041
  vertex 2.274656 0.36947984 0.521529
 endloop
endfacet
facet normal 0.2708374 -0.8809627 0.38800994
 outer loop
  vertex 1.5968009 -1.8627812 0.529577
  vertex 1.7827709 -1.5022941 1.21824
  vertex 0.18169585 -1.907735 1.415278
 endloop
endfacet
facet normal 0.6224207 -0.74722934 -0.23289627
 outer loop
  vertex 1.5968009 -1.8627812 0.529577
  vertex 1.0327349 -1.6739041 -1.5839
  vertex 2.164917 -1.2169721 -0.024147
 endloop
endfacet
facet normal 0.17287192 -0.5936426 -0.78594136
 outer loop
  vertex -0.25740114 -1.868338 -1.720811
  vertex -0.096254095 -1.266695 -2.139803
  vertex 1.0327349 -1.6739041 -1.5839
 endloop
endfacet
facet normal 0.29699585 -0.95451015 -0.026529044
 outer loop
  vertex 0.20816682 -2.292517 0.445465
  vertex 0.18152584 -2.260736 -0.996257
  vertex 1.5968009 -1.8627812 0.529577
 endloop
endfacet
facet normal 0.7936993 -0.39888966 -0.4592694
 outer loop
  vertex 2.164917 -1.2169721 -0.024147
  vertex 1.0327349 -1.6739041 -1.5839
  vertex 1.633324 -0.7618891 -1.338088
 endloop
endfacet
facet normal 0.9656338 0.022272961 -0.25894988
 outer loop
  vertex 1.899009 -0.11729914 -0.921142
  vertex 2.274656 0.36947984 0.521529
  vertex 2.164917 -1.2169721 -0.024147
 endloop
endfacet
facet normal 0.61299014 -0.19748142 -0.7650125
 outer loop
  vertex 0.83029795 -0.55826706 -2.034101
  vertex 1.633324 -0.7618891 -1.338088
  vertex 1.0327349 -1.6739041 -1.5839
 endloop
endfacet
facet normal 0.18123758 -0.8146122 -0.55096275
 outer loop
  vertex 0.18152584 -2.260736 -0.996257
  vertex -0.25740114 -1.868338 -1.720811
  vertex 1.0327349 -1.6739041 -1.5839
 endloop
endfacet
facet normal 0.4588821 -0.8657317 -0.19983974
 outer loop
  vertex 1.5968009 -1.8627812 0.529577
  vertex 0.18152584 -2.260736 -0.996257
  vertex 1.0327349 -1.6739041 -1.5839
 endloop
endfacet
facet normal 0.90719444 -0.11152794 -0.40565953
 outer loop
  vertex 2.164917 -1.2169721 -0.024147
  vertex 1.633324 -0.7618891 -1.338088
  vertex 1.899009 -0.11729914 -0.921142
 endloop
endfacet
facet normal 0.6700748 0.18825707 -0.7180243
 outer loop
  vertex 0.83029795 -0.55826706 -2.034101
  vertex 1.899009 -0.11729914 -0.921142
  vertex 1.633324 -0.7618891 -1.338088
 endloop
endfacet
facet normal 0.33184734 -0.3006093 -0.89415395
 outer loop
  vertex 1.0327349 -1.6739041 -1.5839
  vertex -0.096254095 -1.266695 -2.139803
  vertex 0.83029795 -0.55826706 -2.034101
 endloop
endfacet
facet normal 0.84348965 0.53055847 -0.083863094
 outer loop
  vertex 1.6889161 1.3513459 0.841953
  vertex 2.274656 0.36947984 0.521529
  vertex 1.5622292 1.3685409 -0.323472
 endloop
endfacet
facet normal 0.402854 0.0500037 0.9138973
 outer loop
  vertex 0.40936503 0.36402598 2.438284
  vertex 0.36400697 -0.34762502 2.497216
  vertex 1.61754 -0.014194122 1.926404
 endloop
endfacet
facet normal 0.8161074 0.33263612 0.47256953
 outer loop
  vertex 2.274656 0.36947984 0.521529
  vertex 1.6889161 1.3513459 0.841953
  vertex 1.61754 -0.014194122 1.926404
 endloop
endfacet
facet normal 0.2733204 0.95951176 0.06806769
 outer loop
  vertex 0.6071752 2.028095 1.255031
  vertex 1.1121551 1.9549949 0.257775
  vertex -0.093356825 2.279172 0.528672
 endloop
endfacet
facet normal 0.46031383 0.39322197 0.79591936
 outer loop
  vertex 0.53132814 1.510943 1.801116
  vertex 0.40936503 0.36402598 2.438284
  vertex 1.61754 -0.014194122 1.926404
 endloop
endfacet
facet normal 0.5785262 0.78086394 0.23570967
 outer loop
  vertex 0.6071752 2.028095 1.255031
  vertex 1.6889161 1.3513459 0.841953
  vertex 1.1121551 1.9549949 0.257775
 endloop
endfacet
facet normal 0.7552284 0.6514415 -0.072485186
 outer loop
  vertex 1.5622292 1.3685409 -0.323472
  vertex 1.1121551 1.9549949 0.257775
  vertex 1.6889161 1.3513459 0.841953
 endloop
endfacet
facet normal 0.59831274 0.4788945 0.64240324
 outer loop
  vertex 1.6889161 1.3513459 0.841953
  vertex 0.53132814 1.510943 1.801116
  vertex 1.61754 -0.014194122 1.926404
 endloop
endfacet
facet normal 0.57573706 0.55224603 0.6029521
 outer loop
  vertex 1.6889161 1.3513459 0.841953
  vertex 0.6071752 2.028095 1.255031
  vertex 0.53132814 1.510943 1.801116
 endloop
endfacet
endsolid 
