# Blender 4.3.2
# www.blender.org
mtllib ground5.mtl
o Bottom.001
v 0.000000 0.000000 -100.927879
v -500.000000 -500.000000 -0.000068
v 500.000000 -500.000000 -0.000068
vn -0.0000 -0.1979 -0.9802
vt 0.375000 0.500000
vt 0.625000 0.500000
vt 0.625000 0.750000
s 0
usemtl Material.001
f 1/1/1 3/2/1 2/3/1
o Ground.001.001
v -500.000000 -500.000000 -0.000068
v -250.000000 -500.000000 -0.000068
v -500.000000 -250.000000 -0.000068
v -250.000000 -250.000000 -0.000068
vn -0.0000 -0.0000 1.0000
vt 25.000004 25.000000
vt 0.000008 0.000000
vt 25.000004 0.000002
vt 0.000006 24.999998
s 0
usemtl Material.001
f 7/4/2 4/5/2 5/6/2
f 7/4/2 6/7/2 4/5/2
o Bottom.002
v 0.000000 0.000000 -100.927879
v 500.000000 500.000000 -0.000068
v 500.000000 -500.000000 -0.000068
vn 0.1979 -0.0000 -0.9802
vt 0.375000 0.250000
vt 0.625000 0.250000
vt 0.625000 0.500000
s 0
usemtl Material.001
f 8/8/3 9/9/3 10/10/3
o Bottom.003
v 0.000000 0.000000 -100.927879
v -500.000000 500.000000 -0.000068
v 500.000000 500.000000 -0.000068
vn -0.0000 0.1979 -0.9802
vt 0.375000 0.000000
vt 0.625000 0.000000
vt 0.625000 0.250000
s 0
usemtl Material.001
f 11/11/4 12/12/4 13/13/4
o Bottom.004
v 0.000000 0.000000 -100.927879
v -500.000000 500.000000 -0.000068
v -500.000000 -500.000000 -0.000068
vn -0.1979 -0.0000 -0.9802
vt 0.375000 0.750000
vt 0.625000 0.750000
vt 0.625000 1.000000
s 0
usemtl Material.001
f 14/14/5 16/15/5 15/16/5
o Ground.002.001
v 0.000000 0.000000 -0.000068
v 250.000000 250.000000 -0.000068
v 0.000000 250.000000 -0.000068
v 250.000000 0.000000 -0.000068
vn -0.0000 -0.0000 1.0000
vt 75.000000 75.000000
vt 49.999996 75.000000
vt 50.000000 50.000000
vt 75.000000 50.000004
s 0
usemtl Material.001
f 18/17/6 19/18/6 17/19/6
f 18/17/6 17/19/6 20/20/6
o Ground.003.001
v 0.000000 -500.000000 -0.000068
v 250.000000 -500.000000 -0.000068
v 250.000000 -250.000000 -0.000068
v 0.000000 -250.000000 -0.000068
vn -0.0000 -0.0000 1.0000
vt 75.000000 25.000006
vt 50.000000 25.000002
vt 50.000000 0.000004
vt 75.000000 0.000006
s 0
usemtl Material.001
f 23/21/7 24/22/7 21/23/7
f 23/21/7 21/23/7 22/24/7
o Ground.004.001
v -500.000000 0.000000 -0.000068
v -500.000000 250.000000 -0.000068
v -250.000000 0.000000 -0.000068
v -250.000000 250.000000 -0.000068
vn -0.0000 -0.0000 1.0000
vt 24.999998 74.999992
vt 0.000002 74.999992
vt 0.000004 49.999996
vt 25.000002 50.000000
s 0
usemtl Material.001
f 28/25/8 26/26/8 25/27/8
f 27/28/8 28/25/8 25/27/8
o Ground.001.002
v 0.000000 -500.000000 -0.000068
v -250.000000 -500.000000 -0.000068
v -250.000000 -250.000000 -0.000068
v 0.000000 -250.000000 -0.000068
vn -0.0000 -0.0000 1.0000
vt 50.000000 25.000002
vt 25.000004 0.000002
vt 50.000000 0.000004
vt 25.000004 25.000000
s 0
usemtl Material.001
f 32/29/9 30/30/9 29/31/9
f 32/29/9 31/32/9 30/30/9
o Ground.001.003
v 0.000000 0.000000 -0.000068
v -250.000000 -250.000000 -0.000068
v -250.000000 0.000000 -0.000068
v 0.000000 -250.000000 -0.000068
vn -0.0000 -0.0000 1.0000
vt 50.000000 50.000000
vt 25.000002 50.000000
vt 25.000004 25.000000
vt 50.000000 25.000002
s 0
usemtl Material.001
f 33/33/10 35/34/10 34/35/10
f 33/33/10 34/35/10 36/36/10
o Ground.001.004
v -500.000000 0.000000 -0.000068
v -500.000000 -250.000000 -0.000068
v -250.000000 -250.000000 -0.000068
v -250.000000 0.000000 -0.000068
vn -0.0000 -0.0000 1.0000
vt 25.000004 25.000000
vt 25.000002 50.000000
vt 0.000006 24.999998
vt 0.000004 49.999996
s 0
usemtl Material.001
f 39/37/11 40/38/11 38/39/11
f 40/38/11 37/40/11 38/39/11
o Ground.002.002
v 500.000000 500.000000 -0.000068
v 250.000000 500.000000 -0.000068
v 250.000000 250.000000 -0.000068
v 500.000000 250.000000 -0.000068
vn -0.0000 -0.0000 1.0000
vt 99.999992 100.000000
vt 75.000000 75.000000
vt 99.999992 75.000000
vt 74.999992 100.000000
s 0
usemtl Material.001
f 41/41/12 43/42/12 44/43/12
f 41/41/12 42/44/12 43/42/12
o Ground.002.003
v 500.000000 0.000000 -0.000068
v 250.000000 250.000000 -0.000068
v 500.000000 250.000000 -0.000068
v 250.000000 0.000000 -0.000068
vn -0.0000 -0.0000 1.0000
vt 99.999992 75.000000
vt 75.000000 50.000004
vt 99.999992 50.000008
vt 75.000000 75.000000
s 0
usemtl Material.001
f 47/45/13 48/46/13 45/47/13
f 47/45/13 46/48/13 48/46/13
o Ground.002.004
v 0.000000 500.000000 -0.000068
v 250.000000 500.000000 -0.000068
v 250.000000 250.000000 -0.000068
v 0.000000 250.000000 -0.000068
vn -0.0000 -0.0000 1.0000
vt 75.000000 75.000000
vt 74.999992 100.000000
vt 49.999996 75.000000
vt 49.999992 99.999992
s 0
usemtl Material.001
f 51/49/14 50/50/14 52/51/14
f 50/50/14 49/52/14 52/51/14
o Ground.003.002
v 500.000000 0.000000 -0.000068
v 500.000000 -250.000000 -0.000068
v 250.000000 -250.000000 -0.000068
v 250.000000 0.000000 -0.000068
vn -0.0000 -0.0000 1.0000
vt 99.999992 50.000008
vt 75.000000 25.000006
vt 100.000000 25.000008
vt 75.000000 50.000004
s 0
usemtl Material.001
f 53/53/15 55/54/15 54/55/15
f 53/53/15 56/56/15 55/54/15
o Ground.003.003
v 500.000000 -500.000000 -0.000068
v 500.000000 -250.000000 -0.000068
v 250.000000 -500.000000 -0.000068
v 250.000000 -250.000000 -0.000068
vn -0.0000 -0.0000 1.0000
vt 100.000000 25.000008
vt 75.000000 0.000006
vt 100.000000 0.000008
vt 75.000000 25.000006
s 0
usemtl Material.001
f 58/57/16 59/58/16 57/59/16
f 58/57/16 60/60/16 59/58/16
o Ground.003.004
v 0.000000 0.000000 -0.000068
v 250.000000 -250.000000 -0.000068
v 250.000000 0.000000 -0.000068
v 0.000000 -250.000000 -0.000068
vn -0.0000 -0.0000 1.0000
vt 75.000000 25.000006
vt 75.000000 50.000004
vt 50.000000 25.000002
vt 50.000000 50.000000
s 0
usemtl Material.001
f 62/61/17 63/62/17 64/63/17
f 63/62/17 61/64/17 64/63/17
o Ground.004.002
v 0.000000 500.000000 -0.000068
v -250.000000 500.000000 -0.000068
v 0.000000 250.000000 -0.000068
v -250.000000 250.000000 -0.000068
vn -0.0000 -0.0000 1.0000
vt 49.999992 99.999992
vt 24.999996 99.999992
vt 24.999998 74.999992
vt 49.999996 75.000000
s 0
usemtl Material.001
f 65/65/18 66/66/18 68/67/18
f 67/68/18 65/65/18 68/67/18
o Ground.004.003
v 0.000000 0.000000 -0.000068
v -250.000000 0.000000 -0.000068
v 0.000000 250.000000 -0.000068
v -250.000000 250.000000 -0.000068
vn -0.0000 -0.0000 1.0000
vt 50.000000 50.000000
vt 49.999996 75.000000
vt 25.000002 50.000000
vt 24.999998 74.999992
s 0
usemtl Material.001
f 69/69/19 71/70/19 70/71/19
f 70/71/19 71/70/19 72/72/19
o Ground.004.004
v -500.000000 500.000000 -0.000068
v -500.000000 250.000000 -0.000068
v -250.000000 500.000000 -0.000068
v -250.000000 250.000000 -0.000068
vn -0.0000 -0.0000 1.0000
vt 24.999998 74.999992
vt 24.999996 99.999992
vt 0.000002 74.999992
vt -0.000000 99.999992
s 0
usemtl Material.001
f 76/73/20 75/74/20 74/75/20
f 75/74/20 73/76/20 74/75/20
