solid 
facet normal 0 -0.1978648 -0.9802293
 outer loop
  vertex 0 0 -100.92788
  vertex 500 -500 -6.762333e-05
  vertex -500 -500 -6.762333e-05
 endloop
endfacet
facet normal 0 -0 1
 outer loop
  vertex -250 -250 -6.762333e-05
  vertex -500 -500 -6.762333e-05
  vertex -250 -500 -6.762333e-05
 endloop
endfacet
facet normal 0 0 1
 outer loop
  vertex -250 -250 -6.762333e-05
  vertex -500 -250 -6.762333e-05
  vertex -500 -500 -6.762333e-05
 endloop
endfacet
facet normal 0.1978648 0 -0.9802293
 outer loop
  vertex 0 0 -100.92788
  vertex 500 500 -6.762333e-05
  vertex 500 -500 -6.762333e-05
 endloop
endfacet
facet normal 0 0.1978648 -0.9802293
 outer loop
  vertex 0 0 -100.92788
  vertex -500 500 -6.762333e-05
  vertex 500 500 -6.762333e-05
 endloop
endfacet
facet normal -0.1978648 -0 -0.9802293
 outer loop
  vertex 0 0 -100.92788
  vertex -500 -500 -6.762333e-05
  vertex -500 500 -6.762333e-05
 endloop
endfacet
facet normal 0 0 1
 outer loop
  vertex 250 250 -6.762333e-05
  vertex 0 250 -6.762333e-05
  vertex 0 0 -6.762333e-05
 endloop
endfacet
facet normal 0 -0 1
 outer loop
  vertex 250 250 -6.762333e-05
  vertex 0 0 -6.762333e-05
  vertex 250 0 -6.762333e-05
 endloop
endfacet
facet normal 0 0 1
 outer loop
  vertex 250 -250 -6.762333e-05
  vertex 0 -250 -6.762333e-05
  vertex 0 -500 -6.762333e-05
 endloop
endfacet
facet normal 0 -0 1
 outer loop
  vertex 250 -250 -6.762333e-05
  vertex 0 -500 -6.762333e-05
  vertex 250 -500 -6.762333e-05
 endloop
endfacet
facet normal 0 0 1
 outer loop
  vertex -250 250 -6.762333e-05
  vertex -500 250 -6.762333e-05
  vertex -500 0 -6.762333e-05
 endloop
endfacet
facet normal -0 0 1
 outer loop
  vertex -250 0 -6.762333e-05
  vertex -250 250 -6.762333e-05
  vertex -500 0 -6.762333e-05
 endloop
endfacet
facet normal 0 -0 1
 outer loop
  vertex 0 -250 -6.762333e-05
  vertex -250 -500 -6.762333e-05
  vertex 0 -500 -6.762333e-05
 endloop
endfacet
facet normal 0 0 1
 outer loop
  vertex 0 -250 -6.762333e-05
  vertex -250 -250 -6.762333e-05
  vertex -250 -500 -6.762333e-05
 endloop
endfacet
facet normal 0 0 1
 outer loop
  vertex 0 0 -6.762333e-05
  vertex -250 0 -6.762333e-05
  vertex -250 -250 -6.762333e-05
 endloop
endfacet
facet normal 0 -0 1
 outer loop
  vertex 0 0 -6.762333e-05
  vertex -250 -250 -6.762333e-05
  vertex 0 -250 -6.762333e-05
 endloop
endfacet
facet normal -0 0 1
 outer loop
  vertex -250 -250 -6.762333e-05
  vertex -250 0 -6.762333e-05
  vertex -500 -250 -6.762333e-05
 endloop
endfacet
facet normal 0 0 1
 outer loop
  vertex -250 0 -6.762333e-05
  vertex -500 0 -6.762333e-05
  vertex -500 -250 -6.762333e-05
 endloop
endfacet
facet normal 0 -0 1
 outer loop
  vertex 500 500 -6.762333e-05
  vertex 250 250 -6.762333e-05
  vertex 500 250 -6.762333e-05
 endloop
endfacet
facet normal 0 0 1
 outer loop
  vertex 500 500 -6.762333e-05
  vertex 250 500 -6.762333e-05
  vertex 250 250 -6.762333e-05
 endloop
endfacet
facet normal 0 -0 1
 outer loop
  vertex 500 250 -6.762333e-05
  vertex 250 0 -6.762333e-05
  vertex 500 0 -6.762333e-05
 endloop
endfacet
facet normal 0 0 1
 outer loop
  vertex 500 250 -6.762333e-05
  vertex 250 250 -6.762333e-05
  vertex 250 0 -6.762333e-05
 endloop
endfacet
facet normal -0 0 1
 outer loop
  vertex 250 250 -6.762333e-05
  vertex 250 500 -6.762333e-05
  vertex 0 250 -6.762333e-05
 endloop
endfacet
facet normal 0 0 1
 outer loop
  vertex 250 500 -6.762333e-05
  vertex 0 500 -6.762333e-05
  vertex 0 250 -6.762333e-05
 endloop
endfacet
facet normal 0 -0 1
 outer loop
  vertex 500 0 -6.762333e-05
  vertex 250 -250 -6.762333e-05
  vertex 500 -250 -6.762333e-05
 endloop
endfacet
facet normal 0 0 1
 outer loop
  vertex 500 0 -6.762333e-05
  vertex 250 0 -6.762333e-05
  vertex 250 -250 -6.762333e-05
 endloop
endfacet
facet normal 0 -0 1
 outer loop
  vertex 500 -250 -6.762333e-05
  vertex 250 -500 -6.762333e-05
  vertex 500 -500 -6.762333e-05
 endloop
endfacet
facet normal 0 0 1
 outer loop
  vertex 500 -250 -6.762333e-05
  vertex 250 -250 -6.762333e-05
  vertex 250 -500 -6.762333e-05
 endloop
endfacet
facet normal -0 0 1
 outer loop
  vertex 250 -250 -6.762333e-05
  vertex 250 0 -6.762333e-05
  vertex 0 -250 -6.762333e-05
 endloop
endfacet
facet normal 0 0 1
 outer loop
  vertex 250 0 -6.762333e-05
  vertex 0 0 -6.762333e-05
  vertex 0 -250 -6.762333e-05
 endloop
endfacet
facet normal 0 0 1
 outer loop
  vertex 0 500 -6.762333e-05
  vertex -250 500 -6.762333e-05
  vertex -250 250 -6.762333e-05
 endloop
endfacet
facet normal -0 0 1
 outer loop
  vertex 0 250 -6.762333e-05
  vertex 0 500 -6.762333e-05
  vertex -250 250 -6.762333e-05
 endloop
endfacet
facet normal -0 0 1
 outer loop
  vertex 0 0 -6.762333e-05
  vertex 0 250 -6.762333e-05
  vertex -250 0 -6.762333e-05
 endloop
endfacet
facet normal -0 0 1
 outer loop
  vertex -250 0 -6.762333e-05
  vertex 0 250 -6.762333e-05
  vertex -250 250 -6.762333e-05
 endloop
endfacet
facet normal -0 0 1
 outer loop
  vertex -250 250 -6.762333e-05
  vertex -250 500 -6.762333e-05
  vertex -500 250 -6.762333e-05
 endloop
endfacet
facet normal 0 0 1
 outer loop
  vertex -250 500 -6.762333e-05
  vertex -500 500 -6.762333e-05
  vertex -500 250 -6.762333e-05
 endloop
endfacet
endsolid 
